# xmcd
#
# Track frame offsets: 
#        150
#        35934
#        56738
#        77086
#        106469
#        143429
#        173865
#        194983
#        219134
#        251328
#        275835
#        305442
#
# Disc length: 4469 seconds
#
# Revision: 0
# Processed by: cddbd v1.5.2PL0 Copyright (c) Steve Scherf et al.
# Submitted via: ExactAudioCopy v0.95b4
#
DISCID=b311730c
DTITLE=Eric Clapton - Crossroads Center Benefit Concert - CD1
DYEAR=1999
DGENRE=Blues
TTITLE0=Introduction - My Father's Eyes
TTITLE1=Hoochie Coochie Man
TTITLE2=Reconsider Baby
TTITLE3=Pilgrim
TTITLE4=River Of Tears
TTITLE5=Going Down Slow
TTITLE6=My Favorite Mistake
TTITLE7=Makes You Happy
TTITLE8=Run Baby Run
TTITLE9=Leaving Las Vegas
TTITLE10=Difficult Kind
TTITLE11=Little Wing
EXTD=
EXTT0=
EXTT1=
EXTT2=
EXTT3=
EXTT4=
EXTT5=
EXTT6=
EXTT7=
EXTT8=
EXTT9=
EXTT10=
EXTT11=
PLAYORDER=
